{
    "asset" : {
        "generator" : "Khronos glTF Blender I/O v3.4.50",
        "version" : "2.0"
    },
    "scene" : 0,
    "scenes" : [
        {
            "name" : "Scene",
            "nodes" : [
                1
            ]
        }
    ],
    "nodes" : [
        {
            "mesh" : 0,
            "name" : "wooden_storage_shelf",
            "translation" : [
                0,
                130,
                0
            ]
        },
        {
            "children" : [
                0
            ],
            "name" : "wooden_storage_shelf_grp"
        }
    ],
    "materials" : [
        {
            "doubleSided" : true,
            "name" : "wooden_storage_shelf_mat.001",
            "normalTexture" : {
                "index" : 0
            },
            "occlusionTexture" : {
                "index" : 1
            },
            "pbrMetallicRoughness" : {
                "baseColorTexture" : {
                    "index" : 2
                },
                "metallicRoughnessTexture" : {
                    "index" : 1
                }
            }
        }
    ],
    "meshes" : [
        {
            "name" : "Mesh",
            "primitives" : [
                {
                    "attributes" : {
                        "COLOR_0" : 0,
                        "POSITION" : 1,
                        "TEXCOORD_0" : 2,
                        "TEXCOORD_1" : 3,
                        "NORMAL" : 4
                    },
                    "indices" : 5,
                    "material" : 0
                }
            ]
        }
    ],
    "textures" : [
        {
            "sampler" : 0,
            "source" : 0
        },
        {
            "sampler" : 0,
            "source" : 1
        },
        {
            "sampler" : 0,
            "source" : 2
        }
    ],
    "images" : [
        {
            "mimeType" : "image/png",
            "name" : "wooden_storage_shelf_Normal",
            "uri" : "wooden_storage_shelf_Normal.png"
        },
        {
            "mimeType" : "image/png",
            "name" : "wooden_storage_shelf_AO-wooden_storage_shelf_Roughness-wooden_storage_shelf_Metallic",
            "uri" : "wooden_storage_shelf_AO-wooden_storage_shelf_Roughness-wooden_storage_shelf_Metallic.png"
        },
        {
            "mimeType" : "image/png",
            "name" : "wooden_storage_shelf_bcolor",
            "uri" : "wooden_storage_shelf_bcolor.png"
        }
    ],
    "accessors" : [
        {
            "bufferView" : 0,
            "componentType" : 5123,
            "count" : 6864,
            "normalized" : true,
            "type" : "VEC4"
        },
        {
            "bufferView" : 1,
            "componentType" : 5126,
            "count" : 6864,
            "max" : [
                108.46833038330078,
                130,
                32.47697448730469
            ],
            "min" : [
                -108.46833038330078,
                -130,
                -32.47697448730469
            ],
            "type" : "VEC3"
        },
        {
            "bufferView" : 2,
            "componentType" : 5126,
            "count" : 6864,
            "type" : "VEC2"
        },
        {
            "bufferView" : 3,
            "componentType" : 5126,
            "count" : 6864,
            "type" : "VEC2"
        },
        {
            "bufferView" : 4,
            "componentType" : 5126,
            "count" : 6864,
            "type" : "VEC3"
        },
        {
            "bufferView" : 5,
            "componentType" : 5123,
            "count" : 10296,
            "type" : "SCALAR"
        }
    ],
    "bufferViews" : [
        {
            "buffer" : 0,
            "byteLength" : 54912,
            "byteOffset" : 0,
            "target" : 34962
        },
        {
            "buffer" : 0,
            "byteLength" : 82368,
            "byteOffset" : 54912,
            "target" : 34962
        },
        {
            "buffer" : 0,
            "byteLength" : 54912,
            "byteOffset" : 137280,
            "target" : 34962
        },
        {
            "buffer" : 0,
            "byteLength" : 54912,
            "byteOffset" : 192192,
            "target" : 34962
        },
        {
            "buffer" : 0,
            "byteLength" : 82368,
            "byteOffset" : 247104,
            "target" : 34962
        },
        {
            "buffer" : 0,
            "byteLength" : 20592,
            "byteOffset" : 329472,
            "target" : 34963
        }
    ],
    "samplers" : [
        {
            "magFilter" : 9729,
            "minFilter" : 9987
        }
    ],
    "buffers" : [
        {
            "byteLength" : 350064,
            "uri" : "wooden_storage_shelf.bin"
        }
    ]
}
